<?xml version="1.0" encoding="utf-8"?>
<!-- Generator: Adobe Illustrator 18.0.0, SVG Export Plug-In . SVG Version: 6.00 Build 0)  -->
<!DOCTYPE svg PUBLIC "-//W3C//DTD SVG 1.1//EN" "http://www.w3.org/Graphics/SVG/1.1/DTD/svg11.dtd">
<svg version="1.1" id="图层_1" xmlns="http://www.w3.org/2000/svg" xmlns:xlink="http://www.w3.org/1999/xlink" x="0px" y="0px"
	 viewBox="0 0 400 400" enable-background="new 0 0 400 400" xml:space="preserve">
<polyline class="path" fill="none" stroke="#FFFFFF" stroke-miterlimit="10" points="308.6,212.3 263.8,256.9 202.7,273.1 141.7,256.7 
	97.1,211.9 80.9,150.8 97.4,89.8 142.2,45.2 203.3,29 264.3,45.5 308.9,90.2 ">

</polyline>
<polyline fill="none" stroke="#FFFFFF" stroke-miterlimit="10" points="258.6,183.7 203,215.8 147.4,183.7 147.4,119.5 203,87.4 
	258.6,119.5 "/>
<line fill="none" stroke="#FFFFFF" stroke-miterlimit="10" x1="203" y1="87.4" x2="264.3" y2="45.5"/>
<line fill="none" stroke="#FFFFFF" stroke-miterlimit="10" x1="203" y1="87.4" x2="308.9" y2="90.2"/>
<line fill="none" stroke="#FFFFFF" stroke-miterlimit="10" x1="264.3" y1="45.5" x2="258.6" y2="119.5"/>
<line fill="none" stroke="#FFFFFF" stroke-miterlimit="10" x1="258.6" y1="119.5" x2="308.9" y2="90.2"/>
<line fill="none" stroke="#FFFFFF" stroke-miterlimit="10" x1="203.3" y1="29" x2="258.6" y2="119.5"/>
<line fill="none" stroke="#FFFFFF" stroke-miterlimit="10" x1="203.3" y1="29" x2="203" y2="87.4"/>
<line fill="none" stroke="#FFFFFF" stroke-miterlimit="10" x1="203.3" y1="29" x2="147.4" y2="119.5"/>
<line fill="none" stroke="#FFFFFF" stroke-miterlimit="10" x1="203" y1="87.4" x2="142.2" y2="45.2"/>
<line fill="none" stroke="#FFFFFF" stroke-miterlimit="10" x1="203.3" y1="29" x2="97.4" y2="89.8"/>
<line fill="none" stroke="#FFFFFF" stroke-miterlimit="10" x1="142.2" y1="45.2" x2="147.4" y2="119.5"/>
<line fill="none" stroke="#FFFFFF" stroke-miterlimit="10" x1="97.4" y1="89.8" x2="147.4" y2="183.7"/>
<line fill="none" stroke="#FFFFFF" stroke-miterlimit="10" x1="147.4" y1="119.5" x2="80.9" y2="150.8"/>
<line fill="none" stroke="#FFFFFF" stroke-miterlimit="10" x1="147.4" y1="119.5" x2="97.1" y2="211.9"/>
<line fill="none" stroke="#FFFFFF" stroke-miterlimit="10" x1="80.9" y1="150.8" x2="147.4" y2="183.7"/>
<line fill="none" stroke="#FFFFFF" stroke-miterlimit="10" x1="97.1" y1="211.9" x2="203" y2="215.8"/>
<line fill="none" stroke="#FFFFFF" stroke-miterlimit="10" x1="147.4" y1="183.7" x2="141.7" y2="256.7"/>
<line fill="none" stroke="#FFFFFF" stroke-miterlimit="10" x1="203" y1="215.8" x2="141.7" y2="256.7"/>
<line fill="none" stroke="#FFFFFF" stroke-miterlimit="10" x1="203" y1="215.8" x2="202.7" y2="273.1"/>
<line fill="none" stroke="#FFFFFF" stroke-miterlimit="10" x1="258.6" y1="183.7" x2="308.6" y2="212.3"/>
<line fill="none" stroke="#FFFFFF" stroke-miterlimit="10" x1="258.6" y1="183.7" x2="263.8" y2="256.9"/>
<line fill="none" stroke="#FFFFFF" stroke-miterlimit="10" x1="258.6" y1="183.7" x2="202.7" y2="273.1"/>
<line fill="none" stroke="#FFFFFF" stroke-miterlimit="10" x1="203" y1="215.8" x2="308.6" y2="212.3"/>
<line fill="none" stroke="#FFFFFF" stroke-miterlimit="10" x1="97.1" y1="211.9" x2="263.8" y2="256.9"/>
<circle fill="#FFFFFF" cx="308.9" cy="90.2" r="5.5"/>
<circle fill="#FFFFFF" cx="264.3" cy="45.2" r="5.5"/>
<circle fill="#FFFFFF" cx="258.6" cy="119.5" r="5.5"/>
<circle fill="#FFFFFF" cx="203.3" cy="87.4" r="5.5"/>
<circle fill="#FFFFFF" cx="147.4" cy="119.5" r="5.5"/>
<circle fill="#FFFFFF" cx="147.4" cy="183.7" r="5.5"/>
<circle fill="#FFFFFF" cx="203" cy="213.7" r="5.5"/>
<circle fill="#FFFFFF" cx="258.6" cy="183.7" r="5.5"/>
<circle fill="#FFFFFF" cx="308.6" cy="212.3" r="5.5"/>
<circle fill="#FFFFFF" cx="264.3" cy="256.7" r="5.5"/>
<circle fill="#FFFFFF" cx="202.7" cy="273.1" r="5.5"/>
<circle fill="#FFFFFF" cx="142.2" cy="256.7" r="5.5"/>
<circle fill="#FFFFFF" cx="97.1" cy="211.9" r="5.5"/>
<circle fill="#FFFFFF" cx="80.9" cy="151.1" r="5.5"/>
<circle fill="#FFFFFF" cx="97.4" cy="88.8" r="5.5"/>
<circle fill="#FFFFFF" cx="202.7" cy="29" r="5.5"/>
<circle fill="#FFFFFF" cx="142.2" cy="45.2" r="5.5"/>
<text transform="matrix(1 0 0 1 66.4702 360.3359)" fill="#EFC94C" font-family="'Omnes-Medium'" font-size="50">ConNextor</text>
</svg>
